<?xml version="1.0" encoding="utf-8"?>
<!-- Generator: Adobe Illustrator 27.5.0, SVG Export Plug-In . SVG Version: 6.00 Build 0)  -->
<svg version="1.1" id="Layer_1" xmlns="http://www.w3.org/2000/svg" xmlns:xlink="http://www.w3.org/1999/xlink" x="0px" y="0px"
	 viewBox="0 0 1000 1000" style="enable-background:new 0 0 1000 1000;" xml:space="preserve">
<path style="fill:#59D895;" d="M501.941,515.021L501.941,515.021c8.133-8.134,8.133-21.321,0-29.454l0,0
	c8.134,8.134,21.321,8.134,29.454,0v0c-8.133,8.134-8.133,21.321,0,29.454l0,0C523.262,506.887,510.075,506.887,501.941,515.021z
	 M498.445,547.261L498.445,547.261c-8.038-8.038-8.038-21.071,0-29.109h0c-8.038,8.038-21.071,8.038-29.109,0h0
	c8.038,8.038,8.038,21.071,0,29.109h0C477.375,539.222,490.407,539.222,498.445,547.261z M499.066,482.214L499.066,482.214
	c-8.09-8.09-8.09-21.208,0-29.298l0,0c-8.09,8.09-21.208,8.09-29.298,0l0,0c8.09,8.09,8.09,21.208,0,29.298l0,0
	C477.858,474.124,490.975,474.124,499.066,482.214z M562.649,546.618L562.649,546.618c-7.636-7.636-7.636-20.017,0-27.653v0
	c-7.636,7.636-20.017,7.636-27.653,0l0,0c7.636,7.636,7.636,20.017,0,27.653h0C542.632,538.982,555.013,538.982,562.649,546.618z
	 M529.766,449.13L529.766,449.13c-7.581-7.581-7.581-19.872,0-27.453l0,0c-7.581,7.581-19.872,7.581-27.453,0h0
	c7.581,7.581,7.581,19.872,0,27.453l0,0C509.894,441.549,522.185,441.549,529.766,449.13z M530.159,578.525L530.159,578.525
	c-7.567-7.567-7.567-19.835,0-27.402l0,0c-7.567,7.567-19.835,7.567-27.402,0h0c7.567,7.567,7.567,19.835,0,27.402l0,0
	C510.324,570.958,522.592,570.958,530.159,578.525z M465.129,578.297L465.129,578.297c-7.42-7.42-7.42-19.451,0-26.871h0
	c-7.42,7.42-19.451,7.42-26.871,0h0c7.42,7.42,7.42,19.451,0,26.871h0C445.679,570.877,457.709,570.877,465.129,578.297z
	 M465.463,448.847L465.463,448.847c-7.459-7.459-7.459-19.552,0-27.01v0c-7.459,7.459-19.552,7.459-27.01,0l0,0
	c7.459,7.459,7.459,19.552,0,27.01l0,0C445.911,441.388,458.004,441.388,465.463,448.847z M432.969,546.112L432.969,546.112
	c-7.511-7.511-7.511-19.689,0-27.201h0c-7.511,7.511-19.689,7.511-27.201,0h0c7.511,7.511,7.511,19.689,0,27.201h0
	C413.28,538.601,425.458,538.601,432.969,546.112z M432.382,480.999L432.382,480.999c-7.433-7.434-7.433-19.486,0-26.919l0,0
	c-7.434,7.434-19.486,7.434-26.919,0l0,0c7.434,7.434,7.434,19.486,0,26.919l0,0C412.897,473.565,424.949,473.565,432.382,480.999z
	 M594.189,513.612L594.189,513.612c-7.381-7.381-7.381-19.347,0-26.728v0c-7.381,7.381-19.347,7.381-26.728,0l0,0
	c7.381,7.381,7.381,19.347,0,26.728h0C574.842,506.231,586.808,506.231,594.189,513.612z M497.618,610.678L497.618,610.678
	c-7.339-7.339-7.339-19.237,0-26.575l0,0c-7.339,7.339-19.237,7.339-26.575,0l0,0c7.339,7.339,7.339,19.237,0,26.575h0
	C478.381,603.339,490.279,603.339,497.618,610.678z M497.593,416.423L497.593,416.423c-7.35-7.35-7.35-19.267,0-26.617l0,0
	c-7.35,7.35-19.267,7.35-26.617,0l0,0c7.35,7.35,7.35,19.267,0,26.617l0,0C478.326,409.073,490.243,409.073,497.593,416.423z
	 M593.72,577.729L593.72,577.729c-7.015-7.015-7.015-18.389,0-25.404v0c-7.015,7.015-18.389,7.015-25.404,0v0
	c7.015,7.015,7.015,18.389,0,25.404v0C575.331,570.713,586.705,570.713,593.72,577.729z M593.719,448.231L593.719,448.231
	c-7.007-7.007-7.007-18.367,0-25.373h0c-7.007,7.007-18.367,7.007-25.373,0h0c7.007,7.007,7.007,18.367,0,25.373l0,0
	C575.353,441.224,586.713,441.224,593.719,448.231z M399.485,512.682L399.485,512.682c-7.105-7.105-7.105-18.624,0-25.729l0,0
	c-7.105,7.105-18.624,7.105-25.729,0l0,0c7.105,7.105,7.105,18.624,0,25.729h0C380.861,505.577,392.38,505.577,399.485,512.682z
	 M561.394,610.282L561.394,610.282c-7.101-7.101-7.101-18.614,0-25.715v0c-7.101,7.101-18.614,7.101-25.715,0v0
	c7.101,7.101,7.101,18.614,0,25.715v0C542.78,603.181,554.293,603.181,561.394,610.282z M561.575,416.148L561.575,416.148
	c-7.107-7.107-7.107-18.631,0-25.738v0c-7.107,7.107-18.631,7.107-25.738,0v0c7.107,7.107,7.107,18.631,0,25.738l0,0
	C542.944,409.041,554.468,409.041,561.575,416.148z M626.131,544.9L626.131,544.9c-6.907-6.907-6.907-18.106,0-25.013l0,0
	c-6.907,6.907-18.106,6.907-25.013,0v0c6.907,6.907,6.907,18.106,0,25.013l0,0C608.025,537.992,619.224,537.992,626.131,544.9z
	 M626.136,480.661L626.136,480.661c-6.876-6.876-6.876-18.023,0-24.899l0,0c-6.876,6.876-18.023,6.876-24.899,0l0,0
	c6.876,6.876,6.876,18.023,0,24.899l0,0C608.113,473.785,619.26,473.785,626.136,480.661z M431.718,414.967L431.718,414.967
	c-6.848-6.848-6.848-17.951,0-24.8v0c-6.848,6.848-17.951,6.848-24.8,0l0,0c6.848,6.848,6.848,17.951,0,24.8h0
	C413.767,408.119,424.87,408.119,431.718,414.967z M431.251,609.781L431.251,609.781c-6.788-6.788-6.788-17.793,0-24.581h0
	c-6.788,6.788-17.793,6.788-24.581,0h0c6.788,6.788,6.788,17.793,0,24.581h0C413.459,602.993,424.464,602.993,431.251,609.781z
	 M528.716,382.641L528.716,382.641c-6.785-6.785-6.785-17.785,0-24.57v0c-6.785,6.785-17.785,6.785-24.57,0l0,0
	c6.785,6.785,6.785,17.785,0,24.57l0,0C510.931,375.856,521.932,375.856,528.716,382.641z M528.89,642.41L528.89,642.41
	c-6.761-6.761-6.761-17.722,0-24.482l0,0c-6.761,6.761-17.722,6.761-24.482,0h0c6.761,6.761,6.761,17.722,0,24.482h0
	C511.168,635.65,522.129,635.65,528.89,642.41z M463.599,642.073L463.599,642.073c-6.661-6.661-6.661-17.462,0-24.123v0
	c-6.661,6.661-17.462,6.661-24.123,0l0,0c6.661,6.661,6.661,17.462,0,24.123h0C446.137,635.412,456.937,635.412,463.599,642.073z
	 M463.616,382.465L463.616,382.465c-6.66-6.66-6.66-17.458,0-24.118l0,0c-6.66,6.66-17.458,6.66-24.118,0l0,0
	c6.66,6.66,6.66,17.458,0,24.118l0,0C446.158,375.805,456.956,375.805,463.616,382.465z M366.49,544.493L366.49,544.493
	c-6.596-6.596-6.596-17.289,0-23.885h0c-6.596,6.596-17.289,6.596-23.885,0h0c6.596,6.596,6.596,17.289,0,23.885h0
	C349.2,537.897,359.894,537.897,366.49,544.493z M366.308,479.986L366.308,479.986c-6.577-6.577-6.577-17.24,0-23.817l0,0
	c-6.577,6.577-17.24,6.577-23.816,0l0,0c6.577,6.577,6.577,17.24,0,23.816l0,0C349.068,473.41,359.731,473.41,366.308,479.986z
	 M657.687,512.195L657.687,512.195c-6.494-6.494-6.494-17.023,0-23.517v0c-6.494,6.494-17.023,6.494-23.517,0v0
	c6.494,6.494,6.494,17.023,0,23.517l0,0C640.664,505.701,651.193,505.701,657.687,512.195z M625.516,414.428L625.516,414.428
	c-6.434-6.434-6.434-16.865,0-23.299l0,0c-6.434,6.434-16.865,6.434-23.299,0v0c6.434,6.434,6.434,16.865,0,23.299v0
	C608.651,407.994,619.083,407.994,625.516,414.428z M625.017,608.908L625.017,608.908c-6.425-6.425-6.425-16.841,0-23.266v0
	c-6.425,6.425-16.841,6.425-23.266,0v0c6.425,6.425,6.425,16.841,0,23.266v0C608.176,602.484,618.592,602.484,625.017,608.908z
	 M592.374,382.116L592.374,382.116c-6.384-6.384-6.384-16.735,0-23.12v0c-6.384,6.384-16.735,6.384-23.12,0v0
	c6.384,6.384,6.384,16.735,0,23.12v0C575.639,375.732,585.99,375.732,592.374,382.116z M596.631,375.692L596.631,375.692
	c-0.023-0.023-0.023-0.059,0-0.082l0,0c-0.023,0.023-0.059,0.023-0.082,0l0,0c0.023,0.023,0.023,0.059,0,0.082l0,0
	C596.572,375.669,596.608,375.669,596.631,375.692z M592.768,641.176L592.768,641.176c-6.343-6.343-6.343-16.628,0-22.971l0,0
	c-6.343,6.343-16.628,6.343-22.971,0h0c6.343,6.343,6.343,16.628,0,22.971l0,0C576.14,634.833,586.425,634.833,592.768,641.176z
	 M495.164,673.681L495.164,673.681c-6.262-6.263-6.262-16.416,0-22.679l0,0c-6.263,6.263-16.416,6.263-22.679,0l0,0
	c6.263,6.263,6.263,16.416,0,22.679l0,0C478.748,667.419,488.902,667.419,495.164,673.681z M495.087,349.606L495.087,349.606
	c-6.24-6.24-6.24-16.356,0-22.596l0,0c-6.24,6.24-16.356,6.24-22.596,0l0,0c6.24,6.24,6.24,16.356,0,22.596l0,0
	C478.731,343.366,488.847,343.366,495.087,349.606z M657.262,576.078L657.262,576.078c-6.292-6.292-6.292-16.494,0-22.786h0
	c-6.292,6.292-16.494,6.292-22.786,0l0,0c6.292,6.292,6.292,16.494,0,22.786l0,0C640.768,569.786,650.97,569.786,657.262,576.078z
	 M657.573,446.906L657.573,446.906c-6.296-6.296-6.296-16.504,0-22.8h0c-6.296,6.296-16.504,6.296-22.8,0h0
	c6.296,6.296,6.296,16.504,0,22.8h0C641.069,440.61,651.277,440.61,657.573,446.906z M397.774,381.598L397.774,381.598
	c-6.149-6.149-6.149-16.119,0-22.268h0c-6.149,6.149-16.119,6.149-22.268,0h0c6.149,6.149,6.149,16.119,0,22.268h0
	C381.655,375.449,391.625,375.449,397.774,381.598z M397.793,641.219L397.793,641.219c-6.157-6.157-6.157-16.14,0-22.297h0
	c-6.157,6.157-16.14,6.157-22.297,0h0c6.157,6.157,6.157,16.14,0,22.297h0C381.653,635.062,391.636,635.062,397.793,641.219z
	 M559.823,349.493L559.823,349.493c-6.171-6.171-6.171-16.175,0-22.346v0c-6.171,6.171-16.175,6.171-22.346,0v0
	c6.171,6.171,6.171,16.175,0,22.346v0C543.648,343.323,553.652,343.323,559.823,349.493z M365.199,608.644L365.199,608.644
	c-6.171-6.171-6.171-16.176,0-22.346l0,0c-6.171,6.171-16.176,6.171-22.346,0l0,0c6.171,6.171,6.171,16.176,0,22.346l0,0
	C349.023,602.474,359.028,602.474,365.199,608.644z M559.91,673.588L559.91,673.588c-6.183-6.183-6.183-16.207,0-22.39l0,0
	c-6.183,6.183-16.207,6.183-22.39,0l0,0c6.183,6.183,6.183,16.207,0,22.39l0,0C543.702,667.406,553.727,667.406,559.91,673.588z
	 M365.597,413.852L365.597,413.852c-6.162-6.162-6.162-16.152,0-22.313l0,0c-6.162,6.162-16.152,6.162-22.313,0l0,0
	c6.162,6.162,6.162,16.152,0,22.313h0C349.446,407.69,359.436,407.69,365.597,413.852z M333.386,511.507L333.386,511.507
	c-6.229-6.229-6.229-16.327,0-22.556l0,0c-6.229,6.229-16.327,6.229-22.556,0l0,0c6.229,6.229,6.229,16.327,0,22.556l0,0
	C317.059,505.278,327.157,505.278,333.386,511.507z M430.514,673.365L430.514,673.365c-6.112-6.112-6.112-16.023,0-22.135h0
	c-6.112,6.112-16.023,6.112-22.135,0h0c6.112,6.112,6.112,16.023,0,22.135h0C414.492,667.252,424.402,667.252,430.514,673.365z
	 M430.434,349.243L430.434,349.243c-6.08-6.08-6.08-15.937,0-22.017h0c-6.08,6.08-15.937,6.08-22.017,0h0
	c6.08,6.08,6.08,15.937,0,22.017h0C414.497,343.163,424.354,343.163,430.434,349.243z M332.522,446.249L332.522,446.249
	c-5.987-5.987-5.987-15.694,0-21.681l0,0c-5.987,5.987-15.694,5.987-21.681,0l0,0c5.987,5.987,5.987,15.694,0,21.681l0,0
	C316.828,440.262,326.535,440.262,332.522,446.249z M332.979,575.547L332.979,575.547c-5.948-5.948-5.948-15.591,0-21.538v0
	c-5.948,5.948-15.591,5.948-21.538,0l0,0c5.948,5.948,5.948,15.591,0,21.538h0C317.388,569.599,327.031,569.599,332.979,575.547z
	 M689.501,543.291L689.501,543.291c-6.002-6.002-6.002-15.733,0-21.735l0,0c-6.002,6.002-15.733,6.002-21.735,0l0,0
	c6.002,6.002,6.002,15.733,0,21.735l0,0C673.768,537.289,683.499,537.289,689.501,543.291z M689.378,478.945L689.378,478.945
	c-5.962-5.962-5.962-15.627,0-21.589l0,0c-5.962,5.962-15.627,5.962-21.589,0h0c5.962,5.962,5.962,15.627,0,21.589h0
	C673.751,472.984,683.417,472.984,689.378,478.945z M526.871,316.369L526.871,316.369c-5.753-5.753-5.753-15.08,0-20.833l0,0
	c-5.753,5.753-15.08,5.753-20.833,0l0,0c5.753,5.753,5.753,15.08,0,20.833l0,0C511.79,310.616,521.118,310.616,526.871,316.369z
	 M526.849,704.934L526.849,704.934c-5.732-5.732-5.732-15.025,0-20.757l0,0c-5.732,5.732-15.025,5.732-20.757,0h0
	c5.732,5.732,5.732,15.025,0,20.757l0,0C511.824,699.202,521.117,699.202,526.849,704.934z M624.095,672.201L624.095,672.201
	c-5.775-5.775-5.775-15.138,0-20.913h0c-5.775,5.775-15.138,5.775-20.913,0h0c5.775,5.775,5.775,15.138,0,20.913h0
	C608.958,666.426,618.32,666.426,624.095,672.201z M462.057,315.849L462.057,315.849c-5.789-5.789-5.789-15.175,0-20.965l0,0
	c-5.789,5.789-15.175,5.789-20.965,0v0c5.789,5.789,5.789,15.175,0,20.965l0,0C446.881,310.059,456.268,310.059,462.057,315.849z
	 M656.401,639.992L656.401,639.992c-5.782-5.782-5.782-15.155,0-20.937l0,0c-5.782,5.782-15.155,5.782-20.937,0l0,0
	c5.782,5.782,5.782,15.155,0,20.937l0,0C641.246,634.211,650.619,634.211,656.401,639.992z M656.829,381.074L656.829,381.074
	c-5.824-5.824-5.824-15.266,0-21.089v0c-5.824,5.824-15.266,5.824-21.089,0l0,0c5.824,5.824,5.824,15.266,0,21.089l0,0
	C641.564,375.25,651.006,375.25,656.829,381.074z M461.542,705.003L461.542,705.003c-5.756-5.756-5.756-15.089,0-20.845v0
	c-5.756,5.756-15.089,5.756-20.845,0l0,0c5.756,5.756,5.756,15.089,0,20.845h0C446.453,699.247,455.785,699.247,461.542,705.003z
	 M623.787,348.624L623.787,348.624c-5.669-5.67-5.669-14.862,0-20.531v0c-5.67,5.67-14.862,5.67-20.531,0l0,0
	c5.67,5.67,5.67,14.862,0,20.531l0,0C608.925,342.954,618.117,342.954,623.787,348.624z M688.948,607.674L688.948,607.674
	c-5.694-5.694-5.694-14.927,0-20.621v0c-5.694,5.694-14.927,5.694-20.621,0v0c5.694,5.694,5.694,14.927,0,20.621l0,0
	C674.021,601.979,683.254,601.979,688.948,607.674z M688.509,412.78L688.509,412.78c-5.516-5.516-5.516-14.46,0-19.977l0,0
	c-5.516,5.516-14.46,5.516-19.977,0l0,0c5.516,5.516,5.516,14.46,0,19.977l0,0C674.049,407.264,682.993,407.264,688.509,412.78z
	 M299.487,477.523L299.487,477.523c-5.517-5.517-5.517-14.462,0-19.979v0c-5.517,5.517-14.462,5.517-19.979,0l0,0
	c5.517,5.517,5.517,14.462,0,19.979l0,0C285.025,472.006,293.97,472.006,299.487,477.523z M591.301,704.451L591.301,704.451
	c-5.463-5.463-5.463-14.32,0-19.783h0c-5.463,5.463-14.32,5.463-19.783,0l0,0c5.463,5.463,5.463,14.32,0,19.783l0,0
	C576.98,698.988,585.838,698.988,591.301,704.451z M591.198,316.003L591.198,316.003c-5.473-5.473-5.473-14.346,0-19.818v0
	c-5.473,5.473-14.346,5.473-19.818,0v0c5.473,5.473,5.473,14.346,0,19.818v0C576.852,310.53,585.725,310.53,591.198,316.003z
	 M364.202,347.708L364.202,347.708c-5.44-5.44-5.44-14.26,0-19.7v0c-5.44,5.44-14.26,5.44-19.7,0l0,0c5.44,5.44,5.44,14.26,0,19.7h0
	C349.942,342.268,358.762,342.268,364.202,347.708z M364.353,671.727L364.353,671.727c-5.429-5.429-5.429-14.232,0-19.661h0
	c-5.429,5.429-14.232,5.429-19.661,0l0,0c5.429,5.429,5.429,14.232,0,19.661l0,0C350.121,666.297,358.923,666.297,364.353,671.727z
	 M331.567,380.415L331.567,380.415c-5.451-5.451-5.451-14.289,0-19.74v0c-5.451,5.451-14.289,5.451-19.74,0l0,0
	c5.451,5.451,5.451,14.289,0,19.74l0,0C317.278,374.964,326.116,374.964,331.567,380.415z M720.986,510.192L720.986,510.192
	c-5.452-5.452-5.452-14.291,0-19.742l0,0c-5.452,5.452-14.291,5.452-19.742,0l0,0c5.452,5.452,5.452,14.291,0,19.742v0
	C706.696,504.74,715.534,504.74,720.986,510.192z M332.071,639.577L332.071,639.577c-5.475-5.475-5.475-14.351,0-19.825h0
	c-5.475,5.475-14.351,5.475-19.825,0l0,0c5.475,5.475,5.475,14.351,0,19.825l0,0C317.72,634.103,326.596,634.103,332.071,639.577z
	 M396.238,704.226L396.238,704.226c-5.368-5.368-5.368-14.072,0-19.44h0c-5.368,5.368-14.072,5.368-19.44,0l0,0
	c5.368,5.368,5.368,14.072,0,19.44v0C382.166,698.857,390.87,698.857,396.238,704.226z M396.729,315.22L396.729,315.22
	c-5.356-5.356-5.356-14.039,0-19.395l0,0c-5.356,5.356-14.039,5.356-19.395,0l0,0c5.356,5.356,5.356,14.039,0,19.395l0,0
	C382.69,309.864,391.373,309.864,396.729,315.22z M720.953,445.134L720.953,445.134c-5.384-5.384-5.384-14.114,0-19.498l0,0
	c-5.384,5.384-14.114,5.384-19.498,0l0,0c5.384,5.384,5.384,14.114,0,19.498l0,0C706.839,439.75,715.568,439.75,720.953,445.134z
	 M720.463,574.334L720.463,574.334c-5.367-5.367-5.367-14.068,0-19.435l0,0c-5.367,5.367-14.068,5.367-19.435,0l0,0
	c5.367,5.367,5.367,14.068,0,19.435l0,0C706.395,568.967,715.096,568.967,720.463,574.334z M298.934,606.623L298.934,606.623
	c-5.237-5.237-5.237-13.727,0-18.964h0c-5.237,5.237-13.727,5.237-18.964,0h0c5.237,5.237,5.237,13.727,0,18.964h0
	C285.206,601.387,293.697,601.387,298.934,606.623z M298.87,412.279L298.87,412.279c-5.234-5.234-5.234-13.719,0-18.953l0,0
	c-5.234,5.234-13.719,5.234-18.953,0v0c5.234,5.234,5.234,13.719,0,18.953v0C285.151,407.045,293.636,407.045,298.87,412.279z
	 M493.196,736.497L493.196,736.497c-5.282-5.282-5.282-13.846,0-19.128l0,0c-5.282,5.282-13.846,5.282-19.128,0l0,0
	c5.282,5.282,5.282,13.846,0,19.128v0C479.35,731.215,487.914,731.215,493.196,736.497z M493.585,283.018L493.585,283.018
	c-5.262-5.262-5.262-13.792,0-19.054l0,0c-5.262,5.262-13.792,5.262-19.054,0l0,0c5.262,5.262,5.262,13.792,0,19.054l0,0
	C479.792,277.756,488.323,277.756,493.585,283.018z M558.042,736.147L558.042,736.147c-5.144-5.144-5.144-13.483,0-18.627v0
	c-5.144,5.144-13.483,5.144-18.627,0v0c5.144,5.144,5.144,13.483,0,18.627l0,0C544.559,731.003,552.899,731.003,558.042,736.147z
	 M558.295,282.682L558.295,282.682c-5.137-5.137-5.137-13.465,0-18.602l0,0c-5.137,5.137-13.465,5.137-18.602,0h0
	c5.137,5.137,5.137,13.465,0,18.602l0,0C544.83,277.545,553.158,277.545,558.295,282.682z M266.633,509.15L266.633,509.15
	c-5.183-5.183-5.183-13.586,0-18.769h0c-5.183,5.183-13.586,5.183-18.769,0h0c5.183,5.183,5.183,13.586,0,18.769l0,0
	C253.047,503.968,261.45,503.968,266.633,509.15z M428.131,735.951L428.131,735.951c-5.106-5.106-5.106-13.385,0-18.491l0,0
	c-5.106,5.106-13.385,5.106-18.491,0h0c5.106,5.106,5.106,13.385,0,18.491h0C414.746,730.844,423.025,730.844,428.131,735.951z
	 M427.94,282.462L427.94,282.462c-5.053-5.053-5.053-13.246,0-18.3h0c-5.053,5.053-13.246,5.053-18.3,0l0,0
	c5.053,5.053,5.053,13.246,0,18.3l0,0C414.694,277.408,422.887,277.408,427.94,282.462z M266.243,574.223L266.243,574.223
	c-4.968-4.968-4.968-13.023,0-17.991v0c-4.968,4.968-13.023,4.968-17.991,0l0,0c4.968,4.968,4.968,13.023,0,17.991h0
	C253.221,569.255,261.275,569.255,266.243,574.223z M266.387,444.374L266.387,444.374c-4.972-4.972-4.972-13.034,0-18.006h0
	c-4.972,4.972-13.034,4.972-18.006,0h0c4.972,4.972,4.972,13.034,0,18.006l0,0C253.353,439.402,261.415,439.402,266.387,444.374z
	 M752.407,476.584L752.407,476.584c-4.987-4.988-4.987-13.074,0-18.061l0,0c-4.987,4.988-13.074,4.988-18.061,0v0
	c4.987,4.987,4.987,13.074,0,18.061v0C739.334,471.596,747.42,471.596,752.407,476.584z M752.133,541.746L752.133,541.746
	c-4.978-4.978-4.978-13.048,0-18.025v0c-4.978,4.978-13.048,4.978-18.025,0v0c4.978,4.978,4.978,13.048,0,18.025l0,0
	C739.085,536.769,747.155,536.769,752.133,541.746z M687.208,347.221L687.208,347.221c-4.892-4.892-4.892-12.822,0-17.714h0
	c-4.892,4.892-12.822,4.892-17.714,0l0,0c4.892,4.892,4.892,12.822,0,17.714l0,0C674.386,342.33,682.316,342.33,687.208,347.221z
	 M687.096,671.159L687.096,671.159c-4.882-4.882-4.882-12.798,0-17.68v0c-4.882,4.882-12.798,4.882-17.68,0v0
	c4.882,4.882,4.882,12.798,0,17.68l0,0C674.299,666.277,682.214,666.277,687.096,671.159z M654.501,314.524L654.501,314.524
	c-4.844-4.844-4.844-12.697,0-17.541l0,0c-4.844,4.844-12.697,4.844-17.541,0v0c4.844,4.844,4.844,12.697,0,17.541l0,0
	C641.804,309.681,649.658,309.681,654.501,314.524z M719.565,638.419L719.565,638.419c-4.834-4.834-4.834-12.672,0-17.506l0,0
	c-4.834,4.834-12.672,4.834-17.506,0h0c4.834,4.834,4.834,12.672,0,17.506h0C706.893,633.585,714.731,633.585,719.565,638.419z
	 M719.435,379.688L719.435,379.688c-4.839-4.839-4.839-12.684,0-17.523v0c-4.839,4.839-12.684,4.839-17.523,0l0,0
	c4.839,4.839,4.839,12.684,0,17.523l0,0C706.751,374.849,714.596,374.849,719.435,379.688z M524.643,768.076L524.643,768.076
	c-4.758-4.758-4.758-12.472,0-17.23l0,0c-4.758,4.758-12.472,4.758-17.23,0h0c4.758,4.758,4.758,12.472,0,17.23h0
	C512.171,763.318,519.885,763.318,524.643,768.076z M504.05,759.471L504.05,759.471c-0.001-0.001-0.001-0.001,0-0.002l0,0
	c-0.001,0-0.001,0-0.002,0l0,0c0.001,0,0.001,0.001,0,0.002l0,0C504.049,759.471,504.05,759.471,504.05,759.471z M460.092,767.839
	L460.092,767.839c-4.705-4.705-4.705-12.333,0-17.038l0,0c-4.705,4.705-12.333,4.705-17.038,0l0,0
	c4.705,4.705,4.705,12.333,0,17.038v0C447.759,763.134,455.387,763.134,460.092,767.839z M460.081,249.335L460.081,249.335
	c-4.633-4.633-4.633-12.144,0-16.777v0c-4.633,4.633-12.144,4.633-16.777,0l0,0c4.633,4.633,4.633,12.144,0,16.777l0,0
	C447.937,244.702,455.448,244.702,460.081,249.335z M297.917,346.291L297.917,346.291c-4.718-4.718-4.718-12.367,0-17.085l0,0
	c-4.718,4.718-12.367,4.718-17.085,0l0,0c4.718,4.718,4.718,12.367,0,17.085l0,0C285.55,341.573,293.199,341.573,297.917,346.291z
	 M362.926,735.834L362.926,735.834c-4.678-4.678-4.678-12.263,0-16.941h0c-4.678,4.678-12.263,4.678-16.941,0h0
	c4.678,4.678,4.678,12.263,0,16.941h0C350.663,731.156,358.248,731.156,362.926,735.834z M751.335,605.923L751.335,605.923
	c-4.656-4.656-4.656-12.206,0-16.863l0,0c-4.656,4.656-12.206,4.656-16.863,0v0c4.656,4.656,4.656,12.206,0,16.863l0,0
	C739.129,601.266,746.679,601.266,751.335,605.923z M265.081,378.699L265.081,378.699c-4.523-4.523-4.523-11.856,0-16.379l0,0
	c-4.523,4.523-11.856,4.523-16.378,0l0,0c4.523,4.523,4.523,11.856,0,16.378l0,0C253.225,374.176,260.558,374.176,265.081,378.699z
	 M265.315,637.442L265.315,637.442c-4.454-4.454-4.454-11.675,0-16.128h0c-4.454,4.454-11.675,4.454-16.128,0h0
	c4.454,4.454,4.454,11.675,0,16.128h0C253.64,632.988,260.861,632.988,265.315,637.442z M232.882,540.826L232.882,540.826
	c-4.551-4.551-4.551-11.93,0-16.481l0,0c-4.551,4.551-11.93,4.551-16.481,0l0,0c4.551,4.551,4.551,11.93,0,16.481h0
	C220.953,536.275,228.331,536.275,232.882,540.826z M589.447,767.394L589.447,767.394c-4.49-4.49-4.49-11.769,0-16.259h0
	c-4.49,4.49-11.769,4.49-16.259,0l0,0c4.49,4.49,4.49,11.769,0,16.259l0,0C577.678,762.904,584.958,762.904,589.447,767.394z
	 M589.572,249.434L589.572,249.434c-4.533-4.533-4.533-11.883,0-16.417l0,0c-4.533,4.533-11.883,4.533-16.417,0v0
	c4.533,4.533,4.533,11.883,0,16.417v0C577.688,244.901,585.038,244.901,589.572,249.434z M394.535,248.592L394.535,248.592
	c-4.335-4.335-4.335-11.364,0-15.699v0c-4.335,4.335-11.364,4.335-15.699,0l0,0c4.335,4.335,4.335,11.364,0,15.699l0,0
	C383.171,244.256,390.199,244.256,394.535,248.592z M394.596,766.917L394.596,766.917c-4.361-4.361-4.361-11.433,0-15.794v0
	c-4.361,4.361-11.433,4.361-15.794,0l0,0c4.361,4.361,4.361,11.433,0,15.794h0C383.163,762.556,390.235,762.556,394.596,766.917z
	 M783.1,507.945L783.1,507.945c-4.314-4.314-4.314-11.309,0-15.624v0c-4.314,4.314-11.309,4.314-15.624,0l0,0
	c4.314,4.314,4.314,11.309,0,15.624h0C771.791,503.63,778.786,503.63,783.1,507.945z M232.242,410.751L232.242,410.751
	c-4.229-4.229-4.229-11.086,0-15.315h0c-4.229,4.229-11.086,4.229-15.315,0h0c4.229,4.229,4.229,11.086,0,15.315l0,0
	C221.156,406.522,228.013,406.522,232.242,410.751z M232.247,605.043L232.247,605.043c-4.24-4.24-4.24-11.113,0-15.353h0
	c-4.24,4.24-11.113,4.24-15.353,0h0c4.24,4.24,4.24,11.113,0,15.353h0C221.134,600.804,228.007,600.804,232.247,605.043z
	 M718.29,313.386L718.29,313.386c-4.251-4.251-4.251-11.144,0-15.395l0,0c-4.251,4.251-11.144,4.251-15.395,0l0,0
	c4.251,4.251,4.251,11.144,0,15.395h0C707.146,309.134,714.039,309.134,718.29,313.386z M718.448,702.762L718.448,702.762
	c-4.254-4.254-4.254-11.152,0-15.407l0,0c-4.255,4.254-11.152,4.254-15.407,0l0,0c4.254,4.254,4.254,11.152,0,15.407l0,0
	C707.296,698.507,714.193,698.507,718.448,702.762z M491.358,799.137L491.358,799.137c-4.159-4.159-4.159-10.903,0-15.063h0
	c-4.159,4.159-10.903,4.159-15.063,0h0c4.159,4.159,4.159,10.903,0,15.063h0C480.455,794.978,487.199,794.978,491.358,799.137z
	 M491.731,216.023L491.731,216.023c-4.14-4.141-4.14-10.854,0-14.994l0,0c-4.141,4.141-10.854,4.141-14.994,0l0,0
	c4.141,4.141,4.141,10.854,0,14.994l0,0C480.877,211.883,487.591,211.883,491.731,216.023z M685.859,281.289L685.859,281.289
	c-4.131-4.131-4.131-10.83,0-14.961l0,0c-4.131,4.131-10.83,4.131-14.961,0l0,0c4.131,4.131,4.131,10.83,0,14.961l0,0
	C675.029,277.158,681.728,277.158,685.859,281.289z M685.52,734.808L685.52,734.808c-4.176-4.176-4.176-10.947,0-15.123l0,0
	c-4.176,4.176-10.947,4.176-15.123,0l0,0c4.176,4.176,4.176,10.947,0,15.123l0,0C674.573,730.632,681.344,730.632,685.52,734.808z
	 M783.199,572.361L783.199,572.361c-4.21-4.21-4.21-11.035,0-15.245l0,0c-4.21,4.21-11.035,4.21-15.245,0l0,0
	c4.21,4.21,4.21,11.035,0,15.245l0,0C772.164,568.151,778.989,568.151,783.199,572.361z M750.602,669.538L750.602,669.538
	c-4.007-4.007-4.007-10.503,0-14.51h0c-4.007,4.007-10.503,4.007-14.51,0l0,0c4.007,4.007,4.007,10.503,0,14.51v0
	C740.099,665.531,746.595,665.531,750.602,669.538z M750.567,345.432L750.567,345.432c-4.005-4.005-4.005-10.499,0-14.504l0,0
	c-4.005,4.005-10.499,4.005-14.504,0v0c4.005,4.005,4.005,10.499,0,14.504v0C740.068,341.427,746.562,341.427,750.567,345.432z
	 M653.603,248.442L653.603,248.442c-4.001-4.001-4.001-10.488,0-14.489v0c-4.001,4.001-10.488,4.001-14.489,0v0
	c4.001,4.001,4.001,10.488,0,14.489v0C643.115,244.44,649.602,244.44,653.603,248.442z M426.116,798.957L426.116,798.957
	c-4.049-4.049-4.049-10.615,0-14.664h0c-4.049,4.049-10.615,4.049-14.664,0h0c4.049,4.049,4.049,10.615,0,14.664h0
	C415.501,794.908,422.066,794.908,426.116,798.957z M653.64,766.835L653.64,766.835c-4.044-4.044-4.044-10.6,0-14.644h0
	c-4.044,4.044-10.6,4.044-14.644,0h0c4.044,4.044,4.044,10.6,0,14.644h0C643.04,762.791,649.597,762.791,653.64,766.835z
	 M426.523,215.524L426.523,215.524c-4.014-4.014-4.014-10.521,0-14.535v0c-4.014,4.014-10.521,4.014-14.535,0l0,0
	c4.014,4.014,4.014,10.521,0,14.535l0,0C416.002,211.51,422.509,211.51,426.523,215.524z M556.105,215.796L556.105,215.796
	c-3.975-3.975-3.975-10.42,0-14.395v0c-3.975,3.975-10.42,3.975-14.395,0v0c3.975,3.975,3.975,10.42,0,14.395v0
	C545.685,211.821,552.13,211.821,556.105,215.796z M199.47,507.263L199.47,507.263c-3.9-3.9-3.9-10.223,0-14.122l0,0
	c-3.9,3.9-10.223,3.9-14.122,0l0,0c3.9,3.9,3.9,10.222,0,14.122l0,0C189.247,503.364,195.57,503.364,199.47,507.263z
	 M296.461,280.389L296.461,280.389c-3.925-3.925-3.925-10.288,0-14.213h0c-3.925,3.925-10.288,3.925-14.213,0h0
	c3.925,3.925,3.925,10.288,0,14.213v0C286.173,276.465,292.536,276.465,296.461,280.389z M264.478,312.899L264.478,312.899
	c-4.009-4.009-4.009-10.508,0-14.516v0c-4.009,4.009-10.508,4.009-14.516,0l0,0c4.009,4.009,4.009,10.508,0,14.516h0
	C253.971,308.891,260.47,308.891,264.478,312.899z M296.613,734.376L296.613,734.376c-3.966-3.966-3.966-10.397,0-14.363h0
	c-3.966,3.966-10.397,3.966-14.363,0h0c3.966,3.966,3.966,10.397,0,14.363h0C286.216,730.41,292.647,730.41,296.613,734.376z
	 M264.007,701.337L264.007,701.337c-3.787-3.787-3.787-9.926,0-13.713h0c-3.787,3.787-9.926,3.787-13.713,0h0
	c3.787,3.787,3.787,9.926,0,13.713l0,0C254.081,697.55,260.22,697.55,264.007,701.337z M782.65,377.422L782.65,377.422
	c-3.866-3.866-3.866-10.134,0-14l0,0c-3.866,3.866-10.134,3.866-14,0l0,0c3.866,3.866,3.866,10.134,0,14v0
	C772.516,373.556,778.784,373.556,782.65,377.422z M782.59,636.988L782.59,636.988c-3.82-3.82-3.82-10.012,0-13.832v0
	c-3.82,3.82-10.012,3.82-13.832,0v0c3.82,3.82,3.82,10.012,0,13.832v0C772.577,633.168,778.77,633.168,782.59,636.988z
	 M199.181,442.24L199.181,442.24c-3.809-3.809-3.809-9.984,0-13.792v0c-3.809,3.809-9.984,3.809-13.792,0l0,0
	c3.809,3.809,3.809,9.984,0,13.792l0,0C189.197,438.431,195.372,438.431,199.181,442.24z M199.185,571.621L199.185,571.621
	c-3.739-3.739-3.739-9.801,0-13.54l0,0c-3.739,3.739-9.801,3.739-13.54,0v0c3.739,3.739,3.739,9.801,0,13.54l0,0
	C189.383,567.882,195.446,567.882,199.185,571.621z M329.052,248.101L329.052,248.101c-3.823-3.823-3.823-10.022,0-13.845v0
	c-3.823,3.823-10.022,3.823-13.845,0l0,0c3.823,3.823,3.823,10.022,0,13.845h0C319.03,244.278,325.229,244.278,329.052,248.101z
	 M329.126,766.551L329.126,766.551c-3.907-3.907-3.907-10.24,0-14.147l0,0c-3.907,3.907-10.24,3.907-14.147,0h0
	c3.907,3.907,3.907,10.24,0,14.147h0C318.886,762.645,325.22,762.645,329.126,766.551z M231.268,668.581L231.268,668.581
	c-3.632-3.632-3.632-9.521,0-13.153l0,0c-3.632,3.632-9.521,3.632-13.153,0l0,0c3.632,3.632,3.632,9.521,0,13.153h0
	C221.748,664.949,227.636,664.949,231.268,668.581z M231.275,344.756L231.275,344.756c-3.69-3.69-3.69-9.671,0-13.361l0,0
	c-3.69,3.69-9.671,3.69-13.361,0l0,0c3.69,3.69,3.69,9.671,0,13.361h0C221.603,341.066,227.585,341.066,231.275,344.756z
	 M620.311,215.55L620.311,215.55c-3.728-3.728-3.728-9.772,0-13.5v0c-3.728,3.728-9.772,3.728-13.5,0v0
	c3.728,3.728,3.728,9.772,0,13.5v0C610.54,211.822,616.584,211.822,620.311,215.55z M620.432,798.431L620.432,798.431
	c-3.747-3.747-3.747-9.821,0-13.568l0,0c-3.747,3.747-9.821,3.747-13.568,0h0c3.747,3.747,3.747,9.821,0,13.568h0
	C610.61,794.684,616.685,794.684,620.432,798.431z M814.347,539.482L814.347,539.482c-3.645-3.645-3.645-9.555,0-13.201l0,0
	c-3.645,3.645-9.555,3.645-13.201,0l0,0c3.645,3.645,3.645,9.555,0,13.201l0,0C804.792,535.836,810.702,535.836,814.347,539.482z
	 M814.354,474.414L814.354,474.414c-3.677-3.677-3.677-9.64,0-13.317l0,0c-3.677,3.677-9.64,3.677-13.317,0v0
	c3.677,3.677,3.677,9.64,0,13.317v0C804.715,470.737,810.677,470.737,814.354,474.414z M361.06,798.407L361.06,798.407
	c-3.673-3.673-3.673-9.628,0-13.301h0c-3.673,3.673-9.628,3.673-13.301,0l0,0c3.673,3.673,3.673,9.628,0,13.301l0,0
	C351.432,794.734,357.387,794.734,361.06,798.407z M361.022,215.512L361.022,215.512c-3.638-3.638-3.638-9.538,0-13.176v0
	c-3.638,3.638-9.538,3.638-13.176,0v0c3.638,3.638,3.638,9.538,0,13.176v0C351.484,211.874,357.383,211.874,361.022,215.512z
	 M522.735,182.383L522.735,182.383c-3.566-3.566-3.566-9.347,0-12.913v0c-3.566,3.566-9.347,3.566-12.913,0v0
	c3.566,3.566,3.566,9.347,0,12.913v0C513.388,178.817,519.169,178.817,522.735,182.383z M522.495,830.802L522.495,830.802
	c-3.616-3.616-3.616-9.478,0-13.094v0c-3.616,3.616-9.478,3.616-13.094,0v0c3.616,3.616,3.616,9.478,0,13.094l0,0
	C513.017,827.187,518.879,827.187,522.495,830.802z M814.222,409.579L814.222,409.579c-3.545-3.545-3.545-9.293,0-12.838v0
	c-3.545,3.545-9.293,3.545-12.838,0v0c3.545,3.545,3.545,9.293,0,12.838v0C804.929,406.033,810.677,406.033,814.222,409.579z
	 M814.207,603.915L814.207,603.915c-3.542-3.542-3.542-9.284,0-12.826l0,0c-3.542,3.542-9.284,3.542-12.826,0v0
	c3.542,3.542,3.542,9.284,0,12.826l0,0C804.923,600.373,810.666,600.373,814.207,603.915z M458.031,830.132L458.031,830.132
	c-3.522-3.522-3.522-9.233,0-12.756h0c-3.522,3.522-9.233,3.522-12.756,0l0,0c3.522,3.522,3.522,9.233,0,12.756l0,0
	C448.798,826.609,454.509,826.609,458.031,830.132z M458.444,182.603L458.444,182.603c-3.53-3.53-3.53-9.254,0-12.784l0,0
	c-3.53,3.53-9.254,3.53-12.784,0l0,0c3.53,3.53,3.53,9.254,0,12.784v0C449.19,179.073,454.914,179.073,458.444,182.603z
	 M198.254,635.634L198.254,635.634c-3.34-3.34-3.34-8.756,0-12.097h0c-3.34,3.34-8.756,3.34-12.097,0h0
	c3.34,3.34,3.34,8.756,0,12.097h0C189.498,632.294,194.914,632.294,198.254,635.634z M586.906,182.277L586.906,182.277
	c-3.331-3.331-3.331-8.73,0-12.061l0,0c-3.331,3.331-8.73,3.331-12.061,0l0,0c3.331,3.331,3.331,8.73,0,12.061l0,0
	C578.176,178.947,583.576,178.947,586.906,182.277z M716.385,765.548L716.385,765.548c-3.339-3.339-3.339-8.753,0-12.092l0,0
	c-3.339,3.339-8.753,3.339-12.092,0l0,0c3.339,3.339,3.339,8.753,0,12.092l0,0C707.632,762.209,713.045,762.209,716.385,765.548z
	 M586.985,830.419L586.985,830.419c-3.339-3.339-3.339-8.753,0-12.092l0,0c-3.339,3.339-8.753,3.339-12.092,0l0,0
	c3.339,3.339,3.339,8.753,0,12.092l0,0C578.233,827.08,583.646,827.08,586.985,830.419z M165.726,473.555L165.726,473.555
	c-3.308-3.308-3.308-8.672,0-11.981l0,0c-3.308,3.308-8.672,3.308-11.981,0l0,0c3.308,3.308,3.308,8.672,0,11.981l0,0
	C157.053,470.247,162.417,470.247,165.726,473.555z M716.974,247.053L716.974,247.053c-3.293-3.293-3.293-8.631,0-11.924v0
	c-3.293,3.293-8.631,3.293-11.924,0v0c3.293,3.293,3.293,8.631,0,11.924v0C708.342,243.76,713.681,243.76,716.974,247.053z
	 M749.378,279.374L749.378,279.374c-3.308-3.308-3.308-8.671,0-11.979v0c-3.308,3.308-8.671,3.308-11.979,0v0
	c3.308,3.308,3.308,8.671,0,11.979v0C740.707,276.066,746.07,276.066,749.378,279.374z M749.02,732.857L749.02,732.857
	c-3.329-3.329-3.329-8.727,0-12.057l0,0c-3.329,3.329-8.727,3.329-12.057,0l0,0c3.329,3.329,3.329,8.727,0,12.057l0,0
	C740.293,729.528,745.691,729.528,749.02,732.857z M165.764,538.241L165.764,538.241c-3.21-3.21-3.21-8.415,0-11.625h0
	c-3.21,3.21-8.415,3.21-11.625,0h0c3.21,3.21,3.21,8.415,0,11.625h0C157.349,535.031,162.554,535.031,165.764,538.241z
	 M781.297,311.853L781.297,311.853c-3.201-3.201-3.201-8.39,0-11.591v0c-3.201,3.201-8.39,3.201-11.591,0l0,0
	c3.201,3.201,3.201,8.39,0,11.591h0C772.907,308.652,778.096,308.652,781.297,311.853z M781.391,700.426L781.391,700.426
	c-3.229-3.229-3.229-8.463,0-11.692h0c-3.229,3.229-8.463,3.229-11.692,0l0,0c3.229,3.229,3.229,8.463,0,11.692l0,0
	C772.928,697.197,778.163,697.197,781.391,700.426z M392.874,181.975L392.874,181.975c-3.199-3.199-3.199-8.386,0-11.585l0,0
	c-3.199,3.199-8.386,3.199-11.585,0l0,0c3.199,3.199,3.199,8.386,0,11.585l0,0C384.488,178.776,389.675,178.776,392.874,181.975z
	 M684.47,797.792L684.47,797.792c-3.271-3.271-3.271-8.575,0-11.846l0,0c-3.271,3.271-8.575,3.271-11.846,0l0,0
	c3.271,3.271,3.271,8.575,0,11.846l0,0C675.895,794.521,681.198,794.521,684.47,797.792z M392.476,829.824L392.476,829.824
	c-3.242-3.242-3.242-8.498,0-11.74l0,0c-3.242,3.242-8.498,3.242-11.74,0v0c3.242,3.242,3.242,8.498,0,11.74l0,0
	C383.978,826.582,389.234,826.582,392.476,829.824z M684.079,214.152L684.079,214.152c-3.097-3.097-3.097-8.118,0-11.216l0,0
	c-3.097,3.097-8.118,3.097-11.216,0l0,0c3.097,3.097,3.097,8.118,0,11.216v0C675.961,211.055,680.982,211.055,684.079,214.152z
	 M165.324,602.672L165.324,602.672c-2.957-2.957-2.957-7.752,0-10.709h0c-2.957,2.957-7.752,2.957-10.709,0h0
	c2.957,2.957,2.957,7.752,0,10.709h0C157.572,599.715,162.367,599.715,165.324,602.672z M845.836,505.756L845.836,505.756
	c-3.046-3.046-3.046-7.985,0-11.031v0c-3.046,3.046-7.985,3.046-11.031,0v0c3.046,3.046,3.046,7.985,0,11.031v0
	C837.851,502.709,842.79,502.709,845.836,505.756z M262.389,764.937L262.389,764.937c-3.057-3.057-3.057-8.013,0-11.07h0
	c-3.057,3.057-8.013,3.057-11.069,0h0c3.057,3.057,3.057,8.013,0,11.07h0C254.376,761.88,259.332,761.88,262.389,764.937z
	 M813.316,667.859L813.316,667.859c-3.041-3.041-3.041-7.973,0-11.014v0c-3.041,3.041-7.973,3.041-11.014,0l0,0
	c3.042,3.041,3.042,7.973,0,11.014h0C805.343,664.818,810.275,664.818,813.316,667.859z M229.985,278.85L229.985,278.85
	c-3-3-3-7.863,0-10.862h0c-3,3-7.863,3-10.862,0h0c3,3,3,7.863,0,10.862l0,0C222.123,275.85,226.986,275.85,229.985,278.85z
	 M229.953,732.152L229.953,732.152c-2.894-2.894-2.894-7.586,0-10.48h0c-2.894,2.894-7.586,2.894-10.48,0h0
	c2.894,2.894,2.894,7.586,0,10.48h0C222.367,729.258,227.059,729.258,229.953,732.152z M813.251,343.808L813.251,343.808
	c-3.037-3.037-3.037-7.961,0-10.998v0c-3.037,3.037-7.961,3.037-10.998,0v0c3.037,3.037,3.037,7.961,0,10.998l0,0
	C805.29,340.771,810.214,340.771,813.251,343.808z M846.133,570.687L846.133,570.687c-3.014-3.014-3.014-7.9,0-10.913v0
	c-3.014,3.014-7.9,3.014-10.913,0v0c3.014,3.014,3.014,7.9,0,10.913l0,0C838.233,567.673,843.119,567.673,846.133,570.687z
	 M262.775,246.161L262.775,246.161c-3.056-3.056-3.056-8.01,0-11.066v0c-3.056,3.056-8.01,3.056-11.066,0l0,0
	c3.056,3.056,3.056,8.01,0,11.066l0,0C254.765,243.105,259.719,243.105,262.775,246.161z M846.169,440.918L846.169,440.918
	c-3.029-3.029-3.029-7.939,0-10.968l0,0c-3.029,3.029-7.939,3.029-10.968,0l0,0c3.029,3.029,3.029,7.939,0,10.968l0,0
	C838.23,437.89,843.14,437.89,846.169,440.918z M651.11,829.258L651.11,829.258c-2.912-2.912-2.912-7.633,0-10.545l0,0
	c-2.912,2.912-7.633,2.912-10.545,0l0,0c2.912,2.912,2.912,7.633,0,10.545v0C643.477,826.346,648.199,826.346,651.11,829.258z
	 M651.37,181.467L651.37,181.467c-2.896-2.896-2.896-7.592,0-10.489h0c-2.896,2.896-7.592,2.896-10.489,0l0,0
	c2.896,2.896,2.896,7.592,0,10.489l0,0C643.777,178.57,648.473,178.57,651.37,181.467z M294.79,796.998L294.79,796.998
	c-2.893-2.893-2.893-7.582,0-10.475l0,0c-2.893,2.893-7.582,2.893-10.475,0h0c2.893,2.893,2.893,7.582,0,10.475h0
	C287.207,794.106,291.897,794.106,294.79,796.998z M294.985,213.726L294.985,213.726c-2.882-2.882-2.882-7.554,0-10.436v0
	c-2.882,2.882-7.554,2.882-10.436,0l0,0c2.882,2.882,2.882,7.554,0,10.436h0C287.431,210.844,292.103,210.844,294.985,213.726z
	 M489.377,149.241L489.377,149.241c-2.915-2.915-2.915-7.642,0-10.558l0,0c-2.915,2.915-7.642,2.915-10.558,0l0,0
	c2.915,2.915,2.915,7.642,0,10.558v0C481.735,146.325,486.462,146.325,489.377,149.241z M197.631,311.281L197.631,311.281
	c-2.928-2.928-2.928-7.676,0-10.605l0,0c-2.928,2.928-7.676,2.928-10.605,0l0,0c2.928,2.928,2.928,7.676,0,10.605h0
	C189.954,308.353,194.702,308.353,197.631,311.281z M197.266,699.46L197.266,699.46c-2.743-2.743-2.743-7.191,0-9.934h0
	c-2.743,2.743-7.191,2.743-9.934,0l0,0c2.743,2.743,2.743,7.191,0,9.934v0C190.075,696.717,194.523,696.717,197.266,699.46z
	 M554.018,149.371L554.018,149.371c-2.913-2.913-2.913-7.635,0-10.548l0,0c-2.913,2.913-7.635,2.913-10.548,0l0,0
	c2.913,2.913,2.913,7.635,0,10.548h0C546.383,146.459,551.105,146.459,554.018,149.371z M554.097,861.845L554.097,861.845
	c-2.926-2.926-2.926-7.669,0-10.594l0,0c-2.926,2.925-7.669,2.925-10.594,0l0,0c2.926,2.926,2.926,7.669,0,10.594l0,0
	C546.428,858.919,551.171,858.919,554.097,861.845z M424.436,149.236L424.436,149.236c-2.83-2.83-2.83-7.419,0-10.25v0
	c-2.83,2.83-7.419,2.83-10.25,0v0c2.83,2.83,2.83,7.419,0,10.25v0C417.016,146.405,421.605,146.405,424.436,149.236z
	 M326.66,828.648L326.66,828.648c-2.676-2.676-2.676-7.015,0-9.692h0c-2.676,2.676-7.015,2.676-9.692,0l0,0
	c2.676,2.676,2.676,7.015,0,9.692v0C319.645,825.971,323.984,825.971,326.66,828.648z M327.01,181.078L327.01,181.078
	c-2.69-2.69-2.69-7.052,0-9.743l0,0c-2.69,2.69-7.052,2.69-9.743,0v0c2.69,2.69,2.69,7.052,0,9.743l0,0
	C319.957,178.387,324.319,178.387,327.01,181.078z M132.248,504.788L132.248,504.788c-2.679-2.679-2.679-7.023,0-9.702h0
	c-2.679,2.679-7.023,2.679-9.702,0h0c2.679,2.679,2.679,7.023,0,9.702h0C125.225,502.109,129.569,502.109,132.248,504.788z
	 M164.378,666.569L164.378,666.569c-2.526-2.526-2.526-6.622,0-9.149l0,0c-2.526,2.526-6.622,2.526-9.149,0l0,0
	c2.526,2.526,2.526,6.622,0,9.149v0C157.755,664.043,161.851,664.043,164.378,666.569z M845.122,375.608L845.122,375.608
	c-2.598-2.598-2.598-6.809,0-9.407l0,0c-2.598,2.598-6.809,2.598-9.407,0l0,0c2.598,2.598,2.598,6.809,0,9.407l0,0
	C838.312,373.01,842.524,373.01,845.122,375.608z M845.204,634.46L845.204,634.46c-2.602-2.602-2.602-6.82,0-9.422l0,0
	c-2.602,2.602-6.82,2.602-9.422,0l0,0c2.602,2.602,2.602,6.82,0,9.422l0,0C838.384,631.858,842.602,631.858,845.204,634.46z
	 M164.764,342.567L164.764,342.567c-2.599-2.599-2.599-6.813,0-9.411h0c-2.599,2.599-6.813,2.599-9.411,0h0
	c2.599,2.599,2.599,6.813,0,9.411l0,0C157.952,339.968,162.165,339.968,164.764,342.567z M618.489,861.411L618.489,861.411
	c-2.667-2.667-2.667-6.992,0-9.659l0,0c-2.667,2.667-6.992,2.667-9.659,0l0,0c2.667,2.667,2.667,6.992,0,9.659l0,0
	C611.497,858.744,615.821,858.744,618.489,861.411z M618.285,148.703L618.285,148.703c-2.6-2.6-2.6-6.815,0-9.415l0,0
	c-2.6,2.6-6.815,2.6-9.415,0v0c2.6,2.6,2.6,6.815,0,9.415v0C611.47,146.103,615.685,146.103,618.285,148.703z M132.238,439.629
	L132.238,439.629c-2.608-2.608-2.608-6.837,0-9.446l0,0c-2.608,2.608-6.837,2.608-9.446,0h0c2.608,2.608,2.608,6.837,0,9.446h0
	C125.401,437.021,129.63,437.021,132.238,439.629z M131.946,569.261L131.946,569.261c-2.437-2.437-2.437-6.388,0-8.825l0,0
	c-2.437,2.437-6.388,2.437-8.825,0h0c2.437,2.437,2.437,6.388,0,8.825h0C125.557,566.824,129.509,566.824,131.946,569.261z
	 M877.037,536.961L877.037,536.961c-2.423-2.423-2.423-6.351,0-8.774l0,0c-2.423,2.423-6.351,2.423-8.774,0l0,0
	c2.423,2.423,2.423,6.351,0,8.774l0,0C870.686,534.539,874.614,534.539,877.037,536.961z M877.027,472.438L877.027,472.438
	c-2.481-2.481-2.481-6.503,0-8.983l0,0c-2.481,2.481-6.503,2.481-8.983,0l0,0c2.481,2.481,2.481,6.503,0,8.983v0
	C870.524,469.957,874.546,469.957,877.027,472.438z M747.364,796.045L747.364,796.045c-2.432-2.432-2.432-6.374,0-8.805l0,0
	c-2.432,2.432-6.374,2.432-8.805,0l0,0c2.432,2.432,2.432,6.374,0,8.805l0,0C740.99,793.614,744.932,793.614,747.364,796.045z
	 M747.531,212.757L747.531,212.757c-2.394-2.394-2.394-6.274,0-8.668v0c-2.394,2.394-6.274,2.394-8.668,0l0,0
	c2.394,2.394,2.394,6.274,0,8.668h0C741.256,210.364,745.137,210.364,747.531,212.757z M779.901,244.943L779.901,244.943
	c-2.416-2.416-2.416-6.333,0-8.749v0c-2.416,2.416-6.333,2.416-8.748,0l0,0c2.416,2.416,2.416,6.333,0,8.749l0,0
	C773.568,242.527,777.485,242.527,779.901,244.943z M358.343,860.949L358.343,860.949c-2.429-2.429-2.429-6.368,0-8.797l0,0
	c-2.429,2.429-6.368,2.429-8.797,0l0,0c2.429,2.429,2.429,6.368,0,8.797h0C351.975,858.52,355.914,858.52,358.343,860.949z
	 M779.534,763.845L779.534,763.845c-2.43-2.43-2.43-6.369,0-8.798l0,0c-2.43,2.43-6.369,2.43-8.798,0l0,0
	c2.43,2.43,2.43,6.369,0,8.798l0,0C773.165,761.415,777.104,761.415,779.534,763.845z M358.621,147.776L358.621,147.776
	c-2.388-2.388-2.388-6.26,0-8.648l0,0c-2.388,2.388-6.26,2.388-8.648,0l0,0c2.388,2.388,2.388,6.26,0,8.648l0,0
	C352.361,145.388,356.233,145.388,358.621,147.776z M812.162,731.583L812.162,731.583c-2.341-2.341-2.341-6.138,0-8.479h0
	c-2.341,2.341-6.138,2.341-8.479,0l0,0c2.341,2.341,2.341,6.138,0,8.479l0,0C806.024,729.242,809.82,729.242,812.162,731.583z
	 M811.979,277.626L811.979,277.626c-2.343-2.343-2.343-6.142,0-8.486l0,0c-2.343,2.343-6.142,2.343-8.486,0h0
	c2.343,2.343,2.343,6.142,0,8.486h0C805.836,275.283,809.636,275.283,811.979,277.626z M520.07,892.91L520.07,892.91
	c-2.239-2.239-2.239-5.87,0-8.11v0c-2.239,2.239-5.87,2.239-8.11,0v0c2.239,2.239,2.239,5.87,0,8.11l0,0
	C514.199,890.671,517.83,890.671,520.07,892.91z M876.792,407.311L876.792,407.311c-2.23-2.23-2.23-5.845,0-8.075l0,0
	c-2.23,2.23-5.845,2.23-8.075,0l0,0c2.23,2.23,2.23,5.845,0,8.075v0C870.947,405.081,874.563,405.081,876.792,407.311z
	 M715.153,180.359L715.153,180.359c-2.238-2.238-2.238-5.865,0-8.103l0,0c-2.238,2.238-5.865,2.238-8.103,0l0,0
	c2.238,2.238,2.238,5.865,0,8.103l0,0C709.287,178.121,712.915,178.121,715.153,180.359z M131.34,633.536L131.34,633.536
	c-2.094-2.094-2.094-5.49,0-7.584l0,0c-2.094,2.094-5.49,2.094-7.584,0h0c2.094,2.094,2.094,5.49,0,7.584h0
	C125.85,631.442,129.246,631.442,131.34,633.536z M131.409,374.498L131.409,374.498c-2.166-2.166-2.166-5.677,0-7.843v0
	c-2.166,2.166-5.677,2.166-7.843,0l0,0c2.166,2.166,2.166,5.677,0,7.843h0C125.732,372.333,129.243,372.333,131.409,374.498z
	 M876.794,601.462L876.794,601.462c-2.232-2.232-2.232-5.851,0-8.083l0,0c-2.232,2.232-5.851,2.232-8.083,0l0,0
	c2.232,2.232,2.232,5.851,0,8.083l0,0C870.942,599.23,874.561,599.23,876.794,601.462z M714.802,827.89L714.802,827.89
	c-2.223-2.223-2.223-5.828,0-8.051l0,0c-2.223,2.223-5.828,2.223-8.051,0l0,0c2.223,2.223,2.223,5.828,0,8.051v0
	C708.974,825.666,712.579,825.666,714.802,827.89z M520.278,115.258L520.278,115.258c-2.201-2.201-2.201-5.769,0-7.97v0
	c-2.201,2.201-5.77,2.201-7.97,0v0c2.201,2.201,2.201,5.769,0,7.97v0C514.508,113.057,518.077,113.057,520.278,115.258z
	 M455.834,115.424L455.834,115.424c-2.194-2.194-2.194-5.751,0-7.945v0c-2.194,2.194-5.751,2.194-7.945,0v0
	c2.194,2.194,2.194,5.751,0,7.945v0C450.082,113.23,453.64,113.23,455.834,115.424z M844.371,310.015L844.371,310.015
	c-2.141-2.141-2.141-5.613,0-7.754l0,0c-2.141,2.141-5.613,2.141-7.754,0v0c2.141,2.141,2.141,5.613,0,7.754l0,0
	C838.758,307.873,842.23,307.873,844.371,310.015z M844.253,698.221L844.253,698.221c-2.063-2.063-2.063-5.408,0-7.471l0,0
	c-2.063,2.063-5.408,2.063-7.471,0l0,0c2.063,2.063,2.063,5.408,0,7.471l0,0C838.845,696.158,842.19,696.158,844.253,698.221z
	 M584.482,115.016L584.482,115.016c-1.975-1.975-1.975-5.178,0-7.154v0c-1.975,1.975-5.178,1.975-7.154,0v0
	c1.975,1.975,1.975,5.178,0,7.154v0C579.304,113.041,582.507,113.041,584.482,115.016z M98.452,471.312L98.452,471.312
	c-2.009-2.009-2.009-5.267,0-7.277l0,0c-2.009,2.009-5.267,2.009-7.277,0l0,0c2.009,2.009,2.009,5.267,0,7.277h0
	C93.184,469.303,96.442,469.303,98.452,471.312z M98.82,536.058L98.82,536.058c-1.971-1.971-1.971-5.167,0-7.139h0
	c-1.971,1.971-5.167,1.971-7.139,0h0c1.971,1.971,1.971,5.167,0,7.139h0C93.653,534.087,96.849,534.087,98.82,536.058z
	 M195.887,244.708L195.887,244.708c-2.004-2.004-2.004-5.254,0-7.259v0c-2.004,2.004-5.254,2.004-7.259,0v0
	c2.004,2.004,2.004,5.254,0,7.259l0,0C190.633,242.704,193.882,242.704,195.887,244.708z M584.519,892.879L584.519,892.879
	c-1.996-1.996-1.996-5.232,0-7.228l0,0c-1.996,1.996-5.232,1.996-7.228,0l0,0c1.996,1.996,1.996,5.232,0,7.228l0,0
	C579.287,890.883,582.523,890.883,584.519,892.879z M681.721,860.302L681.721,860.302c-1.967-1.967-1.967-5.157,0-7.124l0,0
	c-1.967,1.967-5.157,1.967-7.124,0l0,0c1.967,1.967,1.967,5.157,0,7.124l0,0C676.565,858.335,679.754,858.335,681.721,860.302z
	 M195.882,762.589L195.882,762.589c-1.894-1.894-1.894-4.966,0-6.861h0c-1.894,1.894-4.966,1.894-6.861,0l0,0
	c1.894,1.894,1.894,4.966,0,6.861l0,0C190.916,760.694,193.987,760.694,195.882,762.589z M228.23,795.349L228.23,795.349
	c-1.991-1.991-1.991-5.219,0-7.21h0c-1.991,1.991-5.219,1.991-7.21,0h0c1.991,1.991,1.991,5.219,0,7.21h0
	C223.01,793.358,226.239,793.358,228.23,795.349z M228.612,212.146L228.612,212.146c-2.012-2.012-2.012-5.275,0-7.287h0
	c-2.012,2.012-5.275,2.012-7.287,0l0,0c2.012,2.012,2.012,5.275,0,7.287l0,0C223.337,210.133,226.599,210.133,228.612,212.146z
	 M682.004,147.164L682.004,147.164c-1.964-1.964-1.964-5.147,0-7.111l0,0c-1.964,1.964-5.147,1.964-7.111,0v0
	c1.964,1.964,1.964,5.147,0,7.111v0C676.857,145.201,680.04,145.201,682.004,147.164z M390.571,114.841L390.571,114.841
	c-1.927-1.927-1.927-5.051,0-6.978v0c-1.927,1.927-5.051,1.927-6.978,0v0c1.927,1.927,1.927,5.051,0,6.978v0
	C385.52,112.914,388.644,112.914,390.571,114.841z M260.471,827.906L260.471,827.906c-1.931-1.931-1.931-5.061,0-6.991l0,0
	c-1.931,1.931-5.061,1.931-6.991,0l0,0c1.931,1.931,1.931,5.061,0,6.991l0,0C255.411,825.975,258.541,825.975,260.471,827.906z
	 M260.671,179.043L260.671,179.043c-1.887-1.887-1.887-4.947,0-6.834l0,0c-1.887,1.887-4.947,1.887-6.834,0l0,0
	c1.887,1.887,1.887,4.947,0,6.834v0C255.724,177.156,258.783,177.156,260.671,179.043z M390.19,892.231L390.19,892.231
	c-1.934-1.935-1.934-5.071,0-7.005l0,0c-1.934,1.934-5.071,1.934-7.005,0l0,0c1.934,1.934,1.934,5.071,0,7.005l0,0
	C385.119,890.297,388.256,890.297,390.19,892.231z M163.112,276.806L163.112,276.806c-1.924-1.924-1.924-5.044,0-6.968h0
	c-1.924,1.924-5.044,1.924-6.968,0l0,0c1.924,1.924,1.924,5.044,0,6.968l0,0C158.068,274.882,161.188,274.882,163.112,276.806z
	 M163.202,729.927L163.202,729.927c-1.768-1.768-1.768-4.636,0-6.404h0c-1.768,1.768-4.636,1.768-6.404,0h0
	c1.768,1.768,1.768,4.636,0,6.404h0C158.566,728.159,161.434,728.159,163.202,729.927z M908.848,503.598L908.848,503.598
	c-1.816-1.816-1.816-4.761,0-6.577l0,0c-1.816,1.816-4.761,1.816-6.577,0l0,0c1.816,1.816,1.816,4.761,0,6.577v0
	C904.087,501.782,907.032,501.782,908.848,503.598z M98.327,406.257L98.327,406.257c-1.7-1.7-1.7-4.457,0-6.157h0
	c-1.7,1.7-4.457,1.7-6.157,0h0c1.7,1.7,1.7,4.457,0,6.157h0C93.87,404.557,96.627,404.557,98.327,406.257z M875.901,665.541
	L875.901,665.541c-1.7-1.7-1.7-4.455,0-6.155l0,0c-1.7,1.7-4.455,1.7-6.155,0l0,0c1.7,1.7,1.7,4.455,0,6.155l0,0
	C871.446,663.841,874.202,663.841,875.901,665.541z M292.119,859.572L292.119,859.572c-1.687-1.687-1.687-4.421,0-6.108l0,0
	c-1.687,1.687-4.421,1.687-6.108,0l0,0c1.687,1.687,1.687,4.421,0,6.108l0,0C287.698,857.886,290.432,857.886,292.119,859.572z
	 M130.357,308.542L130.357,308.542c-1.682-1.682-1.682-4.408,0-6.09l0,0c-1.682,1.682-4.408,1.682-6.089,0h0
	c1.682,1.682,1.682,4.408,0,6.089l0,0C125.949,306.861,128.675,306.861,130.357,308.542z M875.682,341.307L875.682,341.307
	c-1.691-1.691-1.691-4.432,0-6.123l0,0c-1.691,1.691-4.432,1.691-6.123,0l0,0c1.691,1.691,1.691,4.432,0,6.123l0,0
	C871.249,339.616,873.991,339.616,875.682,341.307z M98.088,599.954L98.088,599.954c-1.54-1.54-1.54-4.036,0-5.576l0,0
	c-1.54,1.54-4.036,1.54-5.576,0l0,0c1.54,1.54,1.54,4.036,0,5.576h0C94.052,598.414,96.549,598.414,98.088,599.954z
	 M130.332,697.039L130.332,697.039c-1.534-1.534-1.534-4.02,0-5.554l0,0c-1.534,1.534-4.02,1.534-5.554,0h0
	c1.534,1.534,1.534,4.02,0,5.554h0C126.312,695.505,128.799,695.505,130.332,697.039z M486.677,924.276L486.677,924.276
	c-1.521-1.521-1.521-3.987,0-5.507l0,0c-1.521,1.521-3.987,1.521-5.507,0h0c1.521,1.521,1.521,3.987,0,5.507l0,0
	C482.691,922.755,485.156,922.755,486.677,924.276z M648.706,892.089L648.706,892.089c-1.536-1.536-1.536-4.025,0-5.561l0,0
	c-1.536,1.536-4.025,1.536-5.561,0l0,0c1.536,1.536,1.536,4.025,0,5.561v0C644.681,890.554,647.17,890.554,648.706,892.089z
	 M486.484,81.711L486.484,81.711c-1.507-1.507-1.507-3.951,0-5.458v0c-1.507,1.507-3.951,1.507-5.458,0l0,0
	c1.507,1.507,1.507,3.951,0,5.458l0,0C482.533,80.204,484.977,80.204,486.484,81.711z M648.523,113.999L648.523,113.999
	c-1.509-1.509-1.509-3.956,0-5.465v0c-1.509,1.509-3.956,1.509-5.465,0v0c1.509,1.509,1.509,3.956,0,5.465v0
	C644.567,112.49,647.014,112.49,648.523,113.999z M421.536,923.654L421.536,923.654c-1.262-1.262-1.262-3.309,0-4.571l0,0
	c-1.262,1.262-3.309,1.262-4.571,0l0,0c1.262,1.262,1.262,3.309,0,4.571l0,0C418.227,922.392,420.273,922.392,421.536,923.654z
	 M810.399,210.679L810.399,210.679c-1.262-1.262-1.262-3.309,0-4.571h0c-1.262,1.262-3.309,1.262-4.571,0l0,0
	c1.262,1.262,1.262,3.309,0,4.571l0,0C807.091,209.417,809.137,209.417,810.399,210.679z M551.165,923.517L551.165,923.517
	c-1.261-1.261-1.261-3.306,0-4.567l0,0c-1.261,1.261-3.306,1.261-4.567,0l0,0c1.261,1.261,1.261,3.306,0,4.567l0,0
	C547.859,922.256,549.904,922.256,551.165,923.517z M810.313,794.153L810.313,794.153c-1.263-1.263-1.263-3.31,0-4.572l0,0
	c-1.263,1.263-3.309,1.263-4.572,0l0,0c1.263,1.263,1.263,3.309,0,4.572v0C807.003,792.891,809.05,792.891,810.313,794.153z
	 M551.107,81.583L551.107,81.583c-1.403-1.403-1.403-3.677,0-5.08l0,0c-1.403,1.403-3.677,1.403-5.08,0l0,0
	c1.403,1.403,1.403,3.677,0,5.08v0C547.429,80.18,549.704,80.18,551.107,81.583z M421.697,81.056L421.697,81.056
	c-1.377-1.377-1.377-3.61,0-4.987l0,0c-1.377,1.377-3.61,1.377-4.987,0v0c1.377,1.377,1.377,3.61,0,4.987v0
	C418.087,79.679,420.32,79.679,421.697,81.056z M777.816,826.629L777.816,826.629c-1.256-1.256-1.256-3.293,0-4.55l0,0
	c-1.256,1.256-3.293,1.256-4.55,0l0,0c1.256,1.256,1.256,3.293,0,4.55l0,0C774.523,825.372,776.56,825.372,777.816,826.629z
	 M324.721,113.827L324.721,113.827c-1.385-1.385-1.385-3.632,0-5.017l0,0c-1.385,1.385-3.632,1.385-5.017,0v0
	c1.385,1.385,1.385,3.632,0,5.017l0,0C321.09,112.442,323.336,112.442,324.721,113.827z M745.569,146.264L745.569,146.264
	c-1.208-1.208-1.208-3.168,0-4.376l0,0c-1.208,1.208-3.168,1.208-4.376,0l0,0c1.208,1.208,1.208,3.168,0,4.376l0,0
	C742.401,145.056,744.36,145.056,745.569,146.264z M777.703,178.348L777.703,178.348c-1.205-1.205-1.205-3.159,0-4.364l0,0
	c-1.205,1.205-3.159,1.205-4.364,0l0,0c1.205,1.205,1.205,3.159,0,4.364v0C774.544,177.142,776.498,177.142,777.703,178.348z
	 M97.432,340.372L97.432,340.372c-1.21-1.21-1.21-3.173,0-4.383l0,0c-1.21,1.21-3.173,1.21-4.383,0h0c1.21,1.21,1.21,3.173,0,4.383
	h0C94.259,339.162,96.221,339.162,97.432,340.372z M64.781,502.019L64.781,502.019c-1.159-1.159-1.159-3.039,0-4.198l0,0
	c-1.159,1.159-3.039,1.159-4.198,0h0c1.159,1.159,1.159,3.039,0,4.198h0C61.742,500.86,63.622,500.86,64.781,502.019z
	 M907.232,631.902L907.232,631.902c-1.159-1.159-1.159-3.038,0-4.198l0,0c-1.159,1.159-3.038,1.159-4.198,0l0,0
	c1.159,1.159,1.159,3.038,0,4.198l0,0C904.194,630.743,906.073,630.743,907.232,631.902z M97.267,663.971L97.267,663.971
	c-1.093-1.093-1.093-2.866,0-3.96h0c-1.093,1.093-2.866,1.093-3.96,0l0,0c1.093,1.093,1.093,2.866,0,3.96v0
	C94.401,662.878,96.173,662.878,97.267,663.971z M907.527,372.758L907.527,372.758c-1.131-1.131-1.131-2.965,0-4.096l0,0
	c-1.131,1.131-2.965,1.131-4.096,0l0,0c1.131,1.131,1.131,2.965,0,4.096l0,0C904.562,371.627,906.396,371.627,907.527,372.758z
	 M842.549,761.536L842.549,761.536c-1.158-1.158-1.158-3.034,0-4.192l0,0c-1.158,1.158-3.034,1.158-4.192,0l0,0
	c1.158,1.158,1.158,3.034,0,4.192l0,0C839.515,760.379,841.392,760.379,842.549,761.536z M745.431,858.787L745.431,858.787
	c-1.176-1.176-1.176-3.084,0-4.26l0,0c-1.176,1.176-3.084,1.176-4.26,0l0,0c1.176,1.176,1.176,3.084,0,4.26l0,0
	C742.348,857.611,744.255,857.611,745.431,858.787z M842.47,243.212L842.47,243.212c-1.161-1.161-1.161-3.044,0-4.205v0
	c-1.161,1.161-3.044,1.161-4.205,0v0c1.161,1.161,1.161,3.044,0,4.205l0,0C839.425,242.051,841.308,242.051,842.47,243.212z
	 M64.47,437.251L64.47,437.251c-1.01-1.01-1.01-2.647,0-3.657l0,0c-1.01,1.01-2.647,1.01-3.657,0l0,0c1.01,1.01,1.01,2.647,0,3.657
	l0,0C61.822,436.241,63.46,436.241,64.47,437.251z M615.584,80.792L615.584,80.792c-0.958-0.958-0.958-2.512,0-3.47l0,0
	c-0.958,0.958-2.512,0.958-3.47,0l0,0c0.958,0.958,0.958,2.512,0,3.47v0C613.072,79.834,614.625,79.834,615.584,80.792z
	 M712.423,113.131L712.423,113.131c-0.997-0.997-0.997-2.614,0-3.611v0c-0.997,0.997-2.614,0.997-3.611,0v0
	c0.997,0.997,0.997,2.614,0,3.611l0,0C709.81,112.134,711.426,112.134,712.423,113.131z M64.626,566.409L64.626,566.409
	c-0.949-0.949-0.949-2.489,0-3.438h0c-0.949,0.949-2.489,0.949-3.438,0h0c0.949,0.949,0.949,2.489,0,3.438h0
	C62.137,565.46,63.676,565.46,64.626,566.409z M615.253,923.158L615.253,923.158c-0.909-0.91-0.909-2.384,0-3.294l0,0
	c-0.909,0.909-2.384,0.909-3.294,0l0,0c0.91,0.909,0.91,2.384,0,3.294l0,0C612.869,922.249,614.343,922.249,615.253,923.158z
	 M712.448,890.596L712.448,890.596c-0.914-0.914-0.914-2.395,0-3.309l0,0c-0.914,0.914-2.395,0.914-3.309,0l0,0
	c0.914,0.914,0.914,2.395,0,3.309l0,0C710.052,889.682,711.534,889.682,712.448,890.596z M356.006,80.37L356.006,80.37
	c-0.91-0.91-0.91-2.385,0-3.295l0,0c-0.91,0.91-2.385,0.91-3.295,0l0,0c0.91,0.91,0.91,2.385,0,3.295l0,0
	C353.621,79.46,355.096,79.46,356.006,80.37z M874.677,729.133L874.677,729.133c-1.007-1.007-1.007-2.64,0-3.646l0,0
	c-1.007,1.007-2.64,1.007-3.647,0l0,0c1.007,1.007,1.007,2.64,0,3.646l0,0C872.038,728.127,873.67,728.127,874.677,729.133z
	 M939.417,469.848L939.417,469.848c-1.008-1.008-1.008-2.641,0-3.649l0,0c-1.008,1.008-2.641,1.008-3.649,0l0,0
	c1.008,1.008,1.008,2.641,0,3.649l0,0C936.776,468.841,938.409,468.841,939.417,469.848z M226.55,145.168L226.55,145.168
	c-0.906-0.906-0.906-2.374,0-3.28v0c-0.906,0.906-2.374,0.906-3.28,0v0c0.906,0.906,0.906,2.374,0,3.28l0,0
	C224.176,144.262,225.644,144.262,226.55,145.168z M161.671,210.047L161.671,210.047c-0.906-0.906-0.906-2.374,0-3.28v0
	c-0.906,0.906-2.374,0.906-3.28,0v0c0.906,0.906,0.906,2.374,0,3.28v0C159.297,209.141,160.766,209.141,161.671,210.047z
	 M194.04,177.563L194.04,177.563c-0.881-0.881-0.881-2.309,0-3.19l0,0c-0.881,0.881-2.309,0.881-3.19,0h0
	c0.881,0.881,0.881,2.309,0,3.19h0C191.73,176.682,193.159,176.682,194.04,177.563z M194.124,825.728L194.124,825.728
	c-0.897-0.897-0.897-2.351,0-3.247l0,0c-0.897,0.897-2.351,0.897-3.247,0h0c0.897,0.897,0.897,2.351,0,3.247h0
	C191.774,824.831,193.228,824.831,194.124,825.728z M161.58,793.197L161.58,793.197c-0.876-0.876-0.876-2.296,0-3.172l0,0
	c-0.876,0.876-2.296,0.876-3.172,0h0c0.876,0.876,0.876,2.296,0,3.172l0,0C159.284,792.321,160.704,792.321,161.58,793.197z
	 M939.308,534.227L939.308,534.227c-0.923-0.923-0.923-2.419,0-3.342l0,0c-0.923,0.923-2.419,0.923-3.342,0l0,0
	c0.923,0.923,0.923,2.419,0,3.342l0,0C936.889,533.305,938.385,533.305,939.308,534.227z M355.917,923.008L355.917,923.008
	c-0.895-0.895-0.895-2.347,0-3.243l0,0c-0.895,0.896-2.347,0.896-3.243,0l0,0c0.895,0.896,0.895,2.347,0,3.243l0,0
	C353.57,922.113,355.022,922.113,355.917,923.008z M226.389,857.992L226.389,857.992c-0.897-0.897-0.897-2.351,0-3.247l0,0
	c-0.897,0.897-2.35,0.897-3.247,0l0,0c0.897,0.897,0.897,2.35,0,3.247l0,0C224.038,857.096,225.492,857.096,226.389,857.992z
	 M874.452,275.166L874.452,275.166c-0.881-0.881-0.881-2.309,0-3.19l0,0c-0.881,0.881-2.309,0.881-3.19,0l0,0
	c0.881,0.881,0.881,2.309,0,3.19l0,0C872.142,274.285,873.571,274.285,874.452,275.166z M452.673,954.772L452.673,954.772
	c-0.629-0.629-0.629-1.649,0-2.278h0c-0.629,0.629-1.649,0.629-2.278,0l0,0c0.629,0.629,0.629,1.649,0,2.278l0,0
	C451.024,954.143,452.044,954.143,452.673,954.772z M938.731,598.506L938.731,598.506c-0.629-0.629-0.629-1.649,0-2.278l0,0
	c-0.629,0.629-1.649,0.629-2.278,0l0,0c0.629,0.629,0.629,1.649,0,2.278l0,0C937.082,597.876,938.102,597.876,938.731,598.506z
	 M452.921,47.451L452.921,47.451c-0.629-0.629-0.629-1.649,0-2.278l0,0c-0.629,0.629-1.649,0.629-2.278,0v0
	c0.629,0.629,0.629,1.649,0,2.278v0C451.272,46.822,452.292,46.822,452.921,47.451z M517.593,47.733L517.593,47.733
	c-0.635-0.635-0.635-1.665,0-2.3l0,0c-0.635,0.635-1.665,0.635-2.3,0l0,0c0.635,0.635,0.635,1.665,0,2.3l0,0
	C515.928,47.098,516.958,47.098,517.593,47.733z M128.675,760.266L128.675,760.266c-0.618-0.618-0.618-1.619,0-2.237l0,0
	c-0.618,0.618-1.619,0.618-2.237,0l0,0c0.618,0.618,0.618,1.619,0,2.237l0,0C127.055,759.648,128.057,759.648,128.675,760.266z
	 M63.945,630.71L63.945,630.71c-0.626-0.626-0.626-1.64,0-2.266h0c-0.626,0.626-1.64,0.626-2.266,0h0
	c0.626,0.626,0.626,1.64,0,2.266h0C62.305,630.084,63.319,630.084,63.945,630.71z M906.286,695.882L906.286,695.882
	c-0.631-0.631-0.631-1.655,0-2.286l0,0c-0.631,0.631-1.655,0.631-2.286,0l0,0c0.631,0.631,0.631,1.655,0,2.286l0,0
	C904.631,695.251,905.655,695.251,906.286,695.882z M604.033,389.633L604.033,389.633c-0.001-0.001-0.001-0.003,0-0.004l0,0
	c-0.001,0.001-0.003,0.001-0.004,0l0,0c0.001,0.001,0.001,0.003,0,0.004l0,0C604.03,389.632,604.032,389.632,604.033,389.633z
	 M555.941,799.016L555.941,799.016c-4.01-4.01-4.01-10.511,0-14.521v0c-4.01,4.01-10.511,4.01-14.521,0l0,0
	c4.01,4.01,4.01,10.511,0,14.521h0C545.43,795.006,551.931,795.006,555.941,799.016z M330.257,314.215L330.257,314.215
	c-4.769-4.769-4.769-12.5,0-17.269v0c-4.769,4.769-12.5,4.769-17.269,0l0,0c4.769,4.769,4.769,12.5,0,17.269l0,0
	C317.756,309.447,325.488,309.447,330.257,314.215z M455.623,892.774L455.623,892.774c-2.23-2.23-2.23-5.847,0-8.077l0,0
	c-2.23,2.23-5.847,2.23-8.077,0l0,0c2.23,2.23,2.23,5.847,0,8.077l0,0C449.776,890.543,453.392,890.543,455.623,892.774z
	 M562.636,481.576L562.636,481.576c-7.617-7.617-7.617-19.967,0-27.584v0c-7.617,7.617-19.967,7.617-27.584,0v0
	c7.617,7.617,7.617,19.967,0,27.584v0C542.669,473.959,555.019,473.959,562.636,481.576z M654.833,703.421L654.833,703.421
	c-4.882-4.882-4.882-12.798,0-17.68v0c-4.882,4.882-12.798,4.882-17.68,0l0,0c4.882,4.882,4.882,12.797,0,17.68h0
	C642.036,698.539,649.951,698.539,654.833,703.421z M465.756,514.168L465.756,514.168c-7.807-7.807-7.807-20.464,0-28.271l0,0
	c-7.807,7.807-20.464,7.807-28.271,0l0,0c7.807,7.807,7.807,20.464,0,28.271h0C445.292,506.361,457.949,506.361,465.756,514.168z
	 M489.235,861.68L489.235,861.68c-2.844-2.844-2.844-7.454,0-10.297l0,0c-2.844,2.843-7.454,2.843-10.297,0l0,0
	c2.844,2.844,2.844,7.454,0,10.297v0C481.781,858.837,486.391,858.837,489.235,861.68z M297.884,670.321L297.884,670.321
	c-4.587-4.587-4.587-12.024,0-16.611v0c-4.587,4.587-12.024,4.587-16.611,0l0,0c4.587,4.587,4.587,12.024,0,16.611l0,0
	C285.86,665.734,293.297,665.734,297.884,670.321z M299.61,542.309L299.61,542.309c-5.463-5.463-5.463-14.321,0-19.784l0,0
	c-5.463,5.463-14.321,5.463-19.784,0h0c5.463,5.463,5.463,14.321,0,19.784l0,0C285.289,536.846,294.147,536.846,299.61,542.309z
	 M524.777,249.182L524.777,249.182c-4.597-4.598-4.597-12.052,0-16.649l0,0c-4.598,4.598-12.052,4.598-16.649,0l0,0
	c4.598,4.598,4.598,12.052,0,16.649l0,0C512.726,244.584,520.18,244.584,524.777,249.182z M751.208,411.171L751.208,411.171
	c-4.453-4.453-4.453-11.672,0-16.124v0c-4.453,4.453-11.672,4.453-16.124,0v0c4.453,4.453,4.453,11.672,0,16.124h0
	C739.536,406.718,746.755,406.718,751.208,411.171z M783.154,442.934L783.154,442.934c-4.097-4.097-4.097-10.739,0-14.836h0
	c-4.097,4.097-10.739,4.097-14.836,0l0,0c4.097,4.097,4.097,10.739,0,14.836v0C772.415,438.837,779.057,438.837,783.154,442.934z
	 M424.041,861.366L424.041,861.366c-2.664-2.664-2.664-6.982,0-9.646v0c-2.664,2.664-6.982,2.664-9.646,0v0
	c2.664,2.664,2.664,6.982,0,9.646l0,0C417.058,858.702,421.377,858.702,424.041,861.366z M362.522,281.219L362.522,281.219
	c-4.454-4.454-4.454-11.675,0-16.129l0,0c-4.454,4.454-11.675,4.454-16.129,0l0,0c4.454,4.454,4.454,11.675,0,16.129l0,0
	C350.847,276.765,358.068,276.765,362.522,281.219z M165.34,408.021L165.34,408.021c-2.951-2.951-2.951-7.735,0-10.686h0
	c-2.951,2.951-7.735,2.951-10.686,0l0,0c2.951,2.951,2.951,7.735,0,10.686v0C157.605,405.07,162.389,405.07,165.34,408.021z
	 M330.364,702.824L330.364,702.824c-4.594-4.594-4.594-12.042,0-16.635h0c-4.594,4.594-12.041,4.594-16.635,0h0
	c4.594,4.594,4.594,12.042,0,16.635h0C318.322,698.231,325.77,698.231,330.364,702.824z M198.282,376.434L198.282,376.434
	c-3.341-3.341-3.341-8.757,0-12.098h0c-3.341,3.341-8.757,3.341-12.098,0h0c3.341,3.341,3.341,8.757,0,12.098l0,0
	C189.525,373.093,194.941,373.093,198.282,376.434z M399.017,447.517L399.017,447.517c-6.708-6.708-6.708-17.583,0-24.291l0,0
	c-6.708,6.708-17.583,6.708-24.291,0v0c6.708,6.708,6.708,17.583,0,24.291v0C381.433,440.809,392.309,440.809,399.017,447.517z
	 M398.815,577.101L398.815,577.101c-6.695-6.695-6.695-17.549,0-24.244h0c-6.695,6.695-17.549,6.695-24.244,0l0,0
	c6.695,6.695,6.695,17.549,0,24.244v0C381.266,570.406,392.12,570.406,398.815,577.101z M232.778,475.466L232.778,475.466
	c-4.371-4.371-4.371-11.457,0-15.828l0,0c-4.371,4.371-11.457,4.371-15.828,0l0,0c4.371,4.371,4.371,11.457,0,15.828l0,0
	C221.321,471.095,228.408,471.095,232.778,475.466z M622.141,735.452L622.141,735.452c-4.683-4.683-4.683-12.275,0-16.957l0,0
	c-4.683,4.683-12.275,4.683-16.957,0l0,0c4.683,4.683,4.683,12.275,0,16.957l0,0C609.866,730.769,617.458,730.769,622.141,735.452z
	 M292.295,146.436L292.295,146.436c-1.533-1.533-1.533-4.019,0-5.553l0,0c-1.533,1.533-4.019,1.533-5.553,0l0,0
	c1.533,1.533,1.533,4.019,0,5.553l0,0C288.276,144.902,290.762,144.902,292.295,146.436z M324.134,891.26L324.134,891.26
	c-1.257-1.257-1.257-3.294,0-4.551l0,0c-1.257,1.257-3.294,1.257-4.551,0l0,0c1.257,1.257,1.257,3.294,0,4.551l0,0
	C320.839,890.003,322.877,890.003,324.134,891.26z M622.191,281.971L622.191,281.971c-4.698-4.698-4.698-12.314,0-17.011v0
	c-4.698,4.698-12.314,4.698-17.011,0v0c4.698,4.698,4.698,12.314,0,17.011v0C609.877,277.274,617.493,277.274,622.191,281.971z
	 M908.085,567.949L908.085,567.949c-1.536-1.536-1.536-4.025,0-5.561h0c-1.536,1.536-4.025,1.536-5.561,0l0,0
	c1.536,1.536,1.536,4.025,0,5.561l0,0C904.06,566.414,906.55,566.414,908.085,567.949z M908.069,438.175L908.069,438.175
	c-1.535-1.535-1.535-4.025,0-5.56l0,0c-1.535,1.535-4.025,1.535-5.56,0l0,0c1.535,1.535,1.535,4.025,0,5.56v0
	C904.044,436.64,906.533,436.64,908.069,438.175z M258.329,889.908L258.329,889.908c-0.61-0.61-0.61-1.599,0-2.208l0,0
	c-0.61,0.61-1.599,0.61-2.208,0l0,0c0.61,0.61,0.61,1.599,0,2.208l0,0C256.73,889.298,257.719,889.298,258.329,889.908z
	 M63.964,371.516L63.964,371.516c-0.609-0.609-0.609-1.596,0-2.204l0,0c-0.609,0.609-1.596,0.609-2.204,0l0,0
	c0.609,0.609,0.609,1.596,0,2.204l0,0C62.368,370.908,63.355,370.908,63.964,371.516z M128.601,241.898L128.601,241.898
	c-0.617-0.617-0.617-1.618,0-2.236l0,0c-0.617,0.617-1.618,0.617-2.236,0l0,0c0.617,0.617,0.617,1.618,0,2.236v0
	C126.983,241.281,127.984,241.281,128.601,241.898z M517.517,954.827L517.517,954.827c-0.609-0.609-0.609-1.596,0-2.204l0,0
	c-0.609,0.609-1.596,0.609-2.204,0l0,0c0.609,0.609,0.609,1.596,0,2.204l0,0C515.921,954.218,516.908,954.218,517.517,954.827z
	 M938.78,404.009L938.78,404.009c-0.609-0.609-0.609-1.596,0-2.204l0,0c-0.609,0.609-1.596,0.609-2.204,0l0,0
	c0.609,0.609,0.609,1.596,0,2.204l0,0C937.185,403.4,938.172,403.4,938.78,404.009z M906.391,307.122L906.391,307.122
	c-0.617-0.617-0.617-1.618,0-2.236l0,0c-0.617,0.617-1.618,0.617-2.236,0l0,0c0.617,0.617,0.617,1.618,0,2.236l0,0
	C904.773,306.504,905.774,306.504,906.391,307.122z M258.343,112.111L258.343,112.111c-0.609-0.609-0.609-1.595,0-2.204v0
	c-0.609,0.609-1.595,0.609-2.204,0v0c0.609,0.609,0.609,1.595,0,2.204l0,0C256.748,111.502,257.735,111.502,258.343,112.111z"/>
</svg>
